<mxfile host="app.diagrams.net" modified="2021-05-28T12:36:02.205Z" agent="5.0 (Windows)" etag="JZETzbV9tetH6OC9OxKc" version="14.7.2" type="github">
  <diagram id="kD5HeXQGoQ9XkrsHSEOE" name="block listner">
    <mxGraphModel dx="1240" dy="673" grid="1" gridSize="10" guides="1" tooltips="1" connect="1" arrows="1" fold="1" page="1" pageScale="1" pageWidth="850" pageHeight="1100" math="0" shadow="0">
      <root>
        <mxCell id="0" />
        <mxCell id="1" parent="0" />
        <mxCell id="Yiz7-srcqHhmHwWrODTn-2" value="&lt;div&gt;blocks listner&lt;/div&gt;" style="shape=umlFrame;whiteSpace=wrap;html=1;width=90;height=30;" vertex="1" parent="1">
          <mxGeometry x="60" y="60" width="710" height="610" as="geometry" />
        </mxCell>
        <mxCell id="Yiz7-srcqHhmHwWrODTn-6" style="edgeStyle=orthogonalEdgeStyle;rounded=0;orthogonalLoop=1;jettySize=auto;html=1;exitX=0;exitY=0.5;exitDx=0;exitDy=0;entryX=0.5;entryY=0;entryDx=0;entryDy=0;" edge="1" parent="1" source="Yiz7-srcqHhmHwWrODTn-1" target="Yiz7-srcqHhmHwWrODTn-5">
          <mxGeometry relative="1" as="geometry" />
        </mxCell>
        <mxCell id="Yiz7-srcqHhmHwWrODTn-9" style="edgeStyle=orthogonalEdgeStyle;rounded=0;orthogonalLoop=1;jettySize=auto;html=1;entryX=0.5;entryY=0;entryDx=0;entryDy=0;exitX=1;exitY=0.5;exitDx=0;exitDy=0;" edge="1" parent="1" source="Yiz7-srcqHhmHwWrODTn-1" target="Yiz7-srcqHhmHwWrODTn-8">
          <mxGeometry relative="1" as="geometry" />
        </mxCell>
        <mxCell id="Yiz7-srcqHhmHwWrODTn-1" value="&lt;font style=&quot;font-size: 14px&quot; color=&quot;#0000FF&quot;&gt;new block&lt;/font&gt;" style="rounded=1;whiteSpace=wrap;html=1;" vertex="1" parent="1">
          <mxGeometry x="225" y="80" width="120" height="60" as="geometry" />
        </mxCell>
        <mxCell id="Yiz7-srcqHhmHwWrODTn-5" value="&lt;font color=&quot;#FF0000&quot;&gt;invalid block&lt;br&gt;&lt;/font&gt;" style="rounded=1;whiteSpace=wrap;html=1;" vertex="1" parent="1">
          <mxGeometry x="90" y="190" width="120" height="60" as="geometry" />
        </mxCell>
        <mxCell id="Yiz7-srcqHhmHwWrODTn-12" style="edgeStyle=orthogonalEdgeStyle;rounded=0;orthogonalLoop=1;jettySize=auto;html=1;entryX=0.5;entryY=0;entryDx=0;entryDy=0;" edge="1" parent="1" source="Yiz7-srcqHhmHwWrODTn-8" target="Yiz7-srcqHhmHwWrODTn-11">
          <mxGeometry relative="1" as="geometry" />
        </mxCell>
        <mxCell id="Yiz7-srcqHhmHwWrODTn-14" style="edgeStyle=orthogonalEdgeStyle;rounded=0;orthogonalLoop=1;jettySize=auto;html=1;entryX=0.5;entryY=0;entryDx=0;entryDy=0;" edge="1" parent="1" source="Yiz7-srcqHhmHwWrODTn-8" target="Yiz7-srcqHhmHwWrODTn-13">
          <mxGeometry relative="1" as="geometry" />
        </mxCell>
        <mxCell id="Yiz7-srcqHhmHwWrODTn-8" value="&lt;div&gt;&lt;font color=&quot;#00FF00&quot;&gt;valid block&lt;/font&gt;&lt;/div&gt;" style="rounded=1;whiteSpace=wrap;html=1;" vertex="1" parent="1">
          <mxGeometry x="345" y="190" width="120" height="60" as="geometry" />
        </mxCell>
        <mxCell id="Yiz7-srcqHhmHwWrODTn-18" style="edgeStyle=orthogonalEdgeStyle;rounded=0;orthogonalLoop=1;jettySize=auto;html=1;entryX=0.5;entryY=0;entryDx=0;entryDy=0;" edge="1" parent="1" source="Yiz7-srcqHhmHwWrODTn-11" target="Yiz7-srcqHhmHwWrODTn-15">
          <mxGeometry relative="1" as="geometry">
            <Array as="points" />
          </mxGeometry>
        </mxCell>
        <mxCell id="Yiz7-srcqHhmHwWrODTn-11" value="&lt;font color=&quot;#00FF00&quot;&gt;block has no competition (another valid block)&lt;/font&gt;" style="rounded=1;whiteSpace=wrap;html=1;" vertex="1" parent="1">
          <mxGeometry x="220" y="335" width="120" height="60" as="geometry" />
        </mxCell>
        <mxCell id="Yiz7-srcqHhmHwWrODTn-17" style="edgeStyle=orthogonalEdgeStyle;rounded=0;orthogonalLoop=1;jettySize=auto;html=1;entryX=0.5;entryY=0;entryDx=0;entryDy=0;" edge="1" parent="1" source="Yiz7-srcqHhmHwWrODTn-13" target="Yiz7-srcqHhmHwWrODTn-19">
          <mxGeometry relative="1" as="geometry">
            <mxPoint x="410" y="440" as="targetPoint" />
          </mxGeometry>
        </mxCell>
        <mxCell id="Yiz7-srcqHhmHwWrODTn-21" style="edgeStyle=orthogonalEdgeStyle;rounded=0;orthogonalLoop=1;jettySize=auto;html=1;entryX=0.5;entryY=0;entryDx=0;entryDy=0;" edge="1" parent="1" source="Yiz7-srcqHhmHwWrODTn-13" target="Yiz7-srcqHhmHwWrODTn-22">
          <mxGeometry relative="1" as="geometry" />
        </mxCell>
        <mxCell id="Yiz7-srcqHhmHwWrODTn-13" value="&lt;font color=&quot;#FF0000&quot;&gt;block has competition&lt;br&gt;&lt;/font&gt;" style="rounded=1;whiteSpace=wrap;html=1;" vertex="1" parent="1">
          <mxGeometry x="480" y="330" width="120" height="60" as="geometry" />
        </mxCell>
        <mxCell id="Yiz7-srcqHhmHwWrODTn-15" value="&lt;font color=&quot;#0000FF&quot;&gt;add to chain&lt;br&gt;&lt;/font&gt;" style="rounded=1;whiteSpace=wrap;html=1;" vertex="1" parent="1">
          <mxGeometry x="220" y="570" width="120" height="60" as="geometry" />
        </mxCell>
        <mxCell id="Yiz7-srcqHhmHwWrODTn-24" value="" style="edgeStyle=orthogonalEdgeStyle;rounded=0;orthogonalLoop=1;jettySize=auto;html=1;" edge="1" parent="1" source="Yiz7-srcqHhmHwWrODTn-19" target="Yiz7-srcqHhmHwWrODTn-23">
          <mxGeometry relative="1" as="geometry" />
        </mxCell>
        <mxCell id="Yiz7-srcqHhmHwWrODTn-19" value="&lt;div&gt;&lt;font color=&quot;#00FF00&quot;&gt;block have more credibility&lt;/font&gt;&lt;/div&gt;" style="rounded=1;whiteSpace=wrap;html=1;" vertex="1" parent="1">
          <mxGeometry x="350" y="410" width="120" height="60" as="geometry" />
        </mxCell>
        <mxCell id="Yiz7-srcqHhmHwWrODTn-22" value="&lt;font color=&quot;#FF0000&quot;&gt;block has less credibility&lt;br&gt;&lt;/font&gt;" style="rounded=1;whiteSpace=wrap;html=1;" vertex="1" parent="1">
          <mxGeometry x="610" y="410" width="120" height="60" as="geometry" />
        </mxCell>
        <mxCell id="Yiz7-srcqHhmHwWrODTn-23" value="&lt;font color=&quot;#0000FF&quot;&gt;replace with the other block&lt;br&gt;&lt;/font&gt;" style="whiteSpace=wrap;html=1;rounded=1;" vertex="1" parent="1">
          <mxGeometry x="350" y="570" width="120" height="60" as="geometry" />
        </mxCell>
      </root>
    </mxGraphModel>
  </diagram>
</mxfile>
